<svg width="1440" height="752" viewBox="0 0 1440 752" fill="none" xmlns="http://www.w3.org/2000/svg">
<path fill-rule="evenodd" clip-rule="evenodd" d="M-86.936 675.334C-97.425 656.776 -109.125 621.647 -94.403 597.21L-130.374 542.406L-0.811125 491.598L647.342 394.774L1468.79 479.627L1597.78 676.15C1580.73 682.951 1537.79 697.75 1502.49 702.542C1481.8 705.351 1464.85 702.286 1446.85 699.032L1446.85 699.032C1426.48 695.348 1404.76 691.422 1374.75 695.496C1339.16 700.327 1313.41 711.99 1291.36 721.978C1278.39 727.855 1266.7 733.152 1255.03 736.138C1229.83 742.586 1164.22 740.757 1134.56 739.036C1079.8 757.404 1014.77 749.833 997.69 746.685C980.609 743.537 943.286 714.123 917.487 691.975C896.849 674.257 851.783 673.843 831.83 675.851C727.443 680.604 677.186 664.047 665.107 655.174C635.416 650.809 606.036 643.729 580.322 636.242C535.614 639.325 482.442 645.979 425.935 658.137L419.637 659.492C293.747 686.586 212.181 704.141 45.2329 703.386C-90.5401 702.772 -99.4519 684.429 -86.936 675.334ZM856.233 670.852C760.062 671.786 691.876 658.512 669.804 651.758C673.523 657.042 694.541 666.464 739.298 671.439C787.388 676.785 835.446 672.609 851.156 671.244L851.156 671.244L851.157 671.244L851.16 671.243C853.869 671.008 855.615 670.856 856.233 670.852ZM942.375 692.125C956.14 715.766 1009.05 757.333 1110.56 734.47C1094.93 741.918 1051.93 754.035 1004.99 742.914C958.052 731.794 943.689 704.421 942.375 692.125ZM2.05757 686.048C38.0642 687.68 163.858 693.381 250.994 671.51C349.63 646.753 394.734 636.535 425.956 636.556C404.978 633.506 354.676 634.366 313.763 645.455C266.488 658.269 171.018 673.507 148.718 671.443C142.104 670.831 130.056 671.297 115.733 671.851C81.7652 673.165 35.0037 674.973 17.5815 664.07C-2.23363 651.669 -7.2035 673.314 -7.21161 685.687C-5.88263 685.688 -2.69449 685.833 2.05757 686.048Z" fill="#689EDA"/>
<path fill-rule="evenodd" clip-rule="evenodd" d="M1487.49 536.927L1677.43 537.051L1677.78 1.2274L-195.508 7.8496e-05L-195.859 535.824L-19.1565 535.939C-35.5633 555.856 -31.0493 584.575 -24.7734 600.126C-38.1554 607.267 -33.1285 623.046 94.035 629.035C250.397 636.399 330.042 624.93 452.966 607.227L459.116 606.342C512.599 598.643 562.207 595.164 603.879 594.239C627.448 601.982 655.079 609.632 683.581 614.762C693.296 622.707 737.403 638.652 836.119 638.864C855.187 637.98 897.357 640.145 913.49 655.871C933.657 675.53 963.31 701.761 978.751 705.095C994.192 708.43 1053.78 717.416 1108.44 704.183C1135.93 706.824 1197.11 711.007 1221.9 706.602C1233.37 704.562 1245.3 700.58 1258.52 696.163L1258.52 696.163C1281.01 688.655 1307.26 679.889 1341.49 677.262C1370.36 675.047 1390.01 679.223 1408.44 683.141C1424.72 686.602 1440.06 689.862 1459.97 688.334C1493.92 685.729 1536.85 675.018 1554.08 669.989L1487.49 536.927Z" fill="url(#paint0_radial_300_756)"/>
<defs>
<radialGradient id="paint0_radial_300_756" cx="0" cy="0" r="1" gradientUnits="userSpaceOnUse" gradientTransform="translate(1166.34 283.633) rotate(-167.657) scale(1575.81 1348.27)">
<stop stop-color="#2866AB"/>
<stop offset="0.382808" stop-color="#12437A"/>
<stop offset="1" stop-color="#102945"/>
</radialGradient>
</defs>
</svg>
