<svg width="308" height="442" viewBox="0 0 308 442" fill="none" xmlns="http://www.w3.org/2000/svg">
<path fill-rule="evenodd" clip-rule="evenodd" d="M221 442C343.055 442 442 343.055 442 221C442 98.9451 343.055 0 221 0C98.9451 0 0 98.9451 0 221C0 343.055 98.9451 442 221 442ZM221 365C300.529 365 365 300.529 365 221C365 141.471 300.529 77 221 77C141.471 77 77 141.471 77 221C77 300.529 141.471 365 221 365Z" fill="#155DAD" fill-opacity="0.64"/>
<path fill-rule="evenodd" clip-rule="evenodd" d="M230.5 331C293.184 331 344 280.184 344 217.5C344 154.816 293.184 104 230.5 104C167.816 104 117 154.816 117 217.5C117 280.184 167.816 331 230.5 331ZM230.5 291.455C271.344 291.455 304.455 258.344 304.455 217.5C304.455 176.656 271.344 143.545 230.5 143.545C189.656 143.545 156.545 176.656 156.545 217.5C156.545 258.344 189.656 291.455 230.5 291.455Z" fill="#155DAD" fill-opacity="0.64"/>
</svg>
