<svg width="261" height="50" viewBox="0 0 261 50" fill="none" xmlns="http://www.w3.org/2000/svg">
<path d="M23.8401 6.0928C24.4571 4.28935 27.0077 4.28935 27.6247 6.09281L31.0469 16.0956C31.3237 16.9046 32.0842 17.4482 32.9392 17.4482H43.7852C45.7476 17.4482 46.5362 19.9798 44.9211 21.0943L36.327 27.0242C35.5897 27.533 35.2806 28.4701 35.5706 29.3178L38.8946 39.0335C39.5188 40.8581 37.4537 42.4222 35.8664 41.327L26.8682 35.1183C26.1845 34.6465 25.2803 34.6465 24.5965 35.1183L15.5984 41.327C14.0111 42.4222 11.946 40.8581 12.5702 39.0335L15.8942 29.3178C16.1842 28.4701 15.8751 27.533 15.1377 27.0242L6.54371 21.0943C4.92854 19.9798 5.71722 17.4482 7.67956 17.4482H18.5256C19.3806 17.4482 20.1411 16.9046 20.4179 16.0956L23.8401 6.0928Z" fill="white"/>
<path d="M76.2239 6.0928C76.8409 4.28935 79.3915 4.28935 80.0085 6.09281L83.4307 16.0956C83.7075 16.9046 84.468 17.4482 85.323 17.4482H96.169C98.1314 17.4482 98.92 19.9798 97.3049 21.0943L88.7108 27.0242C87.9734 27.533 87.6644 28.4701 87.9544 29.3178L91.2784 39.0335C91.9026 40.8581 89.8375 42.4222 88.2502 41.327L79.252 35.1183C78.5683 34.6465 77.6641 34.6465 76.9803 35.1183L67.9822 41.327C66.3949 42.4222 64.3297 40.8581 64.954 39.0335L68.278 29.3178C68.568 28.4701 68.2589 27.533 67.5215 27.0242L58.9275 21.0943C57.3123 19.9798 58.101 17.4482 60.0634 17.4482H70.9093C71.7644 17.4482 72.5249 16.9046 72.8017 16.0956L76.2239 6.0928Z" fill="white"/>
<path d="M128.608 6.0928C129.225 4.28935 131.776 4.28935 132.393 6.09281L135.815 16.0956C136.092 16.9046 136.852 17.4482 137.707 17.4482H148.553C150.515 17.4482 151.304 19.9798 149.689 21.0943L141.095 27.0242C140.357 27.533 140.048 28.4701 140.338 29.3178L143.662 39.0335C144.287 40.8581 142.222 42.4222 140.634 41.327L131.636 35.1183C130.952 34.6465 130.048 34.6465 129.364 35.1183L120.366 41.327C118.779 42.4222 116.714 40.8581 117.338 39.0335L120.662 29.3178C120.952 28.4701 120.643 27.533 119.906 27.0242L111.312 21.0943C109.696 19.9798 110.485 17.4482 112.447 17.4482H123.293C124.148 17.4482 124.909 16.9046 125.186 16.0956L128.608 6.0928Z" fill="white"/>
<path d="M180.991 6.0928C181.608 4.28935 184.159 4.28935 184.776 6.09281L188.198 16.0956C188.475 16.9046 189.236 17.4482 190.091 17.4482H200.937C202.899 17.4482 203.688 19.9798 202.072 21.0943L193.478 27.0242C192.741 27.533 192.432 28.4701 192.722 29.3178L196.046 39.0335C196.67 40.8581 194.605 42.4222 193.018 41.327L184.02 35.1183C183.336 34.6465 182.432 34.6465 181.748 35.1183L172.75 41.327C171.162 42.4222 169.097 40.8581 169.722 39.0335L173.046 29.3178C173.336 28.4701 173.026 27.533 172.289 27.0242L163.695 21.0943C162.08 19.9798 162.869 17.4482 164.831 17.4482H175.677C176.532 17.4482 177.292 16.9046 177.569 16.0956L180.991 6.0928Z" fill="white"/>
<path d="M233.375 6.0928C233.992 4.28935 236.543 4.28935 237.16 6.09281L240.582 16.0956C240.859 16.9046 241.619 17.4482 242.474 17.4482H253.32C255.283 17.4482 256.071 19.9798 254.456 21.0943L245.862 27.0242C245.125 27.533 244.816 28.4701 245.106 29.3178L248.43 39.0335C249.054 40.8581 246.989 42.4222 245.402 41.327L236.403 35.1183C235.72 34.6465 234.815 34.6465 234.132 35.1183L225.134 41.327C223.546 42.4222 221.481 40.8581 222.105 39.0335L225.429 29.3178C225.719 28.4701 225.41 27.533 224.673 27.0242L216.079 21.0943C214.464 19.9798 215.252 17.4482 217.215 17.4482H228.061C228.916 17.4482 229.676 16.9046 229.953 16.0956L233.375 6.0928Z" fill="white"/>
</svg>
