<svg width="1440" height="261" viewBox="0 0 1440 261" fill="none" xmlns="http://www.w3.org/2000/svg">
<path fill-rule="evenodd" clip-rule="evenodd" d="M1445.52 91.9044C1455.4 113.891 1466.53 155.357 1453.64 184.781L1487.35 249.53L1366.51 311.528L760.562 432.57L-9.23655 336.519L-131.739 101.265C-115.83 92.9681 -75.7625 74.8714 -42.7634 68.8584C-23.4152 65.3328 -7.51862 68.8938 9.36142 72.6751C28.4684 76.9553 48.8358 81.5178 76.896 76.4047C110.17 70.3416 134.171 56.1395 154.726 43.976C166.82 36.8196 177.721 30.3689 188.617 26.6965C212.149 18.765 273.594 20.4896 301.375 22.3434C352.479 -0.125873 413.426 8.50408 429.445 12.1637C445.464 15.8233 480.668 50.9041 505.017 77.336C524.496 98.4815 566.69 98.6535 585.352 96.0962C683.038 89.6315 730.235 109.167 741.623 119.743C770.962 125.048 800.005 133.978 825.05 143.318C866.061 139.153 914.348 130.831 965.524 116.273L971.408 114.599C1089.03 81.1276 1165.23 59.4411 1321.54 59.144C1448.65 58.9023 1457.16 80.8836 1445.52 91.9044ZM562.572 105.005C652.599 103.188 716.553 118.65 737.277 126.608C733.748 120.284 713.987 109.112 672.041 103.456C626.972 97.3781 582.017 102.743 567.322 104.497L567.32 104.497L567.318 104.498C564.784 104.8 563.15 104.995 562.572 105.005ZM481.736 80.0601C468.639 51.7466 418.738 2.17222 323.908 30.3826C338.476 21.3181 378.623 6.44563 422.665 19.4717C466.708 32.4978 480.397 65.2915 481.736 80.0601ZM1362.12 80.5781C1328.4 78.8768 1210.58 72.9332 1129.19 99.8463C1037.07 130.311 994.932 142.917 965.703 143.118C985.369 146.632 1032.45 145.235 1070.66 131.612C1114.8 115.871 1204.05 96.8691 1224.94 99.1889C1231.14 99.8769 1242.42 99.2299 1255.82 98.4607C1287.61 96.6366 1331.37 94.1253 1347.78 107.104C1366.44 121.864 1370.9 95.8147 1370.8 80.9447C1369.56 80.9532 1366.57 80.8026 1362.12 80.5781Z" fill="url(#paint0_radial_333_1018)"/>
<defs>
<radialGradient id="paint0_radial_333_1018" cx="0" cy="0" r="1" gradientUnits="userSpaceOnUse" gradientTransform="translate(309.67 267.684) rotate(8.66246) scale(1351.5 863.179)">
<stop stop-color="#2866AB"/>
<stop offset="0.382808" stop-color="#12437A"/>
<stop offset="1" stop-color="#102945"/>
</radialGradient>
</defs>
</svg>
