<svg width="1440" height="480" viewBox="0 0 1440 480" fill="none" xmlns="http://www.w3.org/2000/svg">
<g clip-path="url(#clip0_300_758)">
<path fill-rule="evenodd" clip-rule="evenodd" d="M-265 -676.778L1324.41 -871.569L1424.28 -56.6662L1430.17 -57.3879L1466.07 235.48L1464.33 235.693L1489.11 375.637C1469.08 382.685 1419.76 398.283 1382.8 404.29C1361.13 407.811 1345.98 405.737 1329.9 403.534C1311.7 401.04 1292.29 398.382 1260.87 403.489C1223.6 409.546 1192.68 421.476 1166.19 431.693C1150.6 437.705 1136.56 443.123 1123.66 446.404C1095.81 453.491 1032.31 454.734 1004.04 454.47C941.391 473.894 881.258 469.804 866.026 467.659C850.793 465.513 828.451 439.997 813.89 420.681C802.242 405.227 758.222 406.86 737.668 409.608C632.931 418.668 591.656 405.612 584.111 397.952C522.418 391.77 469.189 372.434 450.286 363.539C385.194 314.686 283.548 304.025 240.862 304.801C194.321 297.791 81.5925 315.401 1.21326 343.749C-63.0901 366.427 -107.963 416.35 -122.361 438.477L-124.244 427.85C-107.345 395.887 -54.8371 359.614 -30.4377 345.337C-47.7141 348.145 -121.403 393.677 -129.126 400.289L-141.7 329.297L-116.609 320.577L-142.382 323.736L-265 -676.778ZM765.14 401.801C670.319 406.965 609.857 397.745 591.478 392.49C592.562 397.207 608.611 404.975 650.113 407.572C694.706 410.363 743.89 404.355 759.968 402.391C762.743 402.052 764.532 401.833 765.14 401.801ZM850.719 371.888C852.748 393.123 884.481 429.175 995.188 403.505C976.233 411.088 928.158 424.209 887.5 416.03C846.841 407.851 846.038 383.194 850.719 371.888Z" fill="url(#paint0_radial_300_758)"/>
</g>
<defs>
<radialGradient id="paint0_radial_300_758" cx="0" cy="0" r="1" gradientUnits="userSpaceOnUse" gradientTransform="translate(266.05 37.3744) rotate(17.6296) scale(1458.27 2269.11)">
<stop stop-color="#2866AB"/>
<stop offset="0.382808" stop-color="#12437A"/>
<stop offset="1" stop-color="#102945"/>
</radialGradient>
<clipPath id="clip0_300_758">
<rect width="1440" height="480" fill="white"/>
</clipPath>
</defs>
</svg>
