<svg width="393" height="296" viewBox="0 0 393 296" fill="none" xmlns="http://www.w3.org/2000/svg">
<path fill-rule="evenodd" clip-rule="evenodd" d="M-17 -45.1371L442.18 -66L454.666 208.816L407.286 210.969L408.602 239.915L411.314 240.397L413.463 287.696C408.085 288.934 394.908 291.519 385.222 291.959C379.543 292.217 375.725 291.202 371.67 290.125C367.081 288.905 362.189 287.605 353.953 287.979C344.187 288.423 335.852 290.61 328.714 292.483L328.714 292.483L328.713 292.484C324.514 293.586 320.728 294.579 317.309 295.045C309.924 296.051 293.585 294.416 286.339 293.472C270.634 296.459 256.188 294.053 251.305 292.89C246.685 290.038 245.202 286.323 245.289 283.669C244.759 284.621 244.338 285.99 244.398 287.517C242.27 284.814 240.231 281.51 238.656 278.691C236.18 274.259 224.827 273.329 219.46 273.417C192.276 272.567 182.116 267.851 180.434 265.599C164.805 262.063 151.785 255.323 147.229 252.395C132.146 237.511 106.411 231.56 95.4286 230.445C83.716 227.159 54.1966 228.314 32.6233 233.299C23.1337 235.491 14.878 240.036 8.63167 244.578C3.5799 246.86 -1.01497 249.136 -2.4453 249.999L-3.37088 229.627L-4.51365 229.679L-17 -45.1371Z" fill="url(#paint0_radial_1_807)"/>
<defs>
<radialGradient id="paint0_radial_1_807" cx="0" cy="0" r="1" gradientUnits="userSpaceOnUse" gradientTransform="translate(118.021 162.725) rotate(21.3598) scale(413.405 630.413)">
<stop stop-color="#2866AB"/>
<stop offset="0.382808" stop-color="#12437A"/>
<stop offset="1" stop-color="#102945"/>
</radialGradient>
</defs>
</svg>
