<svg width="22" height="23" viewBox="0 0 22 23" fill="none" xmlns="http://www.w3.org/2000/svg">
<path d="M20.6615 6.13375C20.5526 5.69871 20.3309 5.30011 20.0186 4.97821C19.7064 4.65631 19.3147 4.42251 18.8832 4.30042C17.3065 3.91542 10.9999 3.91542 10.9999 3.91542C10.9999 3.91542 4.69321 3.91542 3.11654 4.33709C2.68502 4.45917 2.29335 4.69297 1.98111 5.01488C1.66886 5.33678 1.4471 5.73538 1.33821 6.17042C1.04965 7.77051 0.908506 9.3937 0.91654 11.0196C0.906254 12.6577 1.04741 14.2933 1.33821 15.9054C1.45825 16.3269 1.68499 16.7104 1.9965 17.0187C2.30802 17.327 2.69379 17.5497 3.11654 17.6654C4.69321 18.0871 10.9999 18.0871 10.9999 18.0871C10.9999 18.0871 17.3065 18.0871 18.8832 17.6654C19.3147 17.5433 19.7064 17.3095 20.0186 16.9876C20.3309 16.6657 20.5526 16.2671 20.6615 15.8321C20.9479 14.244 21.089 12.6332 21.0832 11.0196C21.0935 9.38146 20.9523 7.74589 20.6615 6.13375Z" stroke="white" stroke-width="1.03125" stroke-linecap="round" stroke-linejoin="round"/>
<path d="M8.9375 14.0171L14.2083 11.0196L8.9375 8.02209V14.0171Z" stroke="white" stroke-width="1.03125" stroke-linecap="round" stroke-linejoin="round"/>
</svg>
