<svg width="21" height="21" viewBox="0 0 21 21" fill="none" xmlns="http://www.w3.org/2000/svg">
<path d="M18.7938 14.7031V17.2659C18.7948 17.5038 18.7461 17.7393 18.6508 17.9573C18.5555 18.1753 18.4157 18.371 18.2403 18.5318C18.065 18.6926 17.8581 18.8151 17.6327 18.8913C17.4073 18.9675 17.1685 18.9958 16.9315 18.9744C14.3028 18.6888 11.7777 17.7905 9.55915 16.3518C7.49508 15.0402 5.74511 13.2902 4.43351 11.2262C2.98977 8.99754 2.0913 6.46017 1.81089 3.81961C1.78954 3.58338 1.81762 3.34529 1.89333 3.1205C1.96904 2.89571 2.09072 2.68914 2.25064 2.51396C2.41056 2.33878 2.6052 2.19881 2.82217 2.10297C3.03914 2.00713 3.2737 1.95752 3.51089 1.9573H6.07371C6.4883 1.95322 6.89022 2.10003 7.20457 2.37037C7.51892 2.6407 7.72424 3.01612 7.78226 3.42665C7.89043 4.24681 8.09104 5.0521 8.38025 5.82716C8.49519 6.13292 8.52006 6.46523 8.45193 6.78469C8.3838 7.10416 8.22551 7.39741 7.99583 7.62967L6.9109 8.7146C8.12701 10.8533 9.89783 12.6241 12.0365 13.8402L13.1215 12.7553C13.3537 12.5256 13.647 12.3673 13.9664 12.2992C14.2859 12.2311 14.6182 12.256 14.924 12.3709C15.699 12.6601 16.5043 12.8607 17.3245 12.9689C17.7395 13.0274 18.1185 13.2364 18.3894 13.5562C18.6603 13.8759 18.8042 14.2841 18.7938 14.7031Z" stroke="white" stroke-width="1.06048" stroke-linecap="round" stroke-linejoin="round"/>
</svg>
