<svg width="22" height="22" viewBox="0 0 22 22" fill="none" xmlns="http://www.w3.org/2000/svg">
<path d="M15.5 1.49261H6.5C3.70406 1.49261 1.4375 3.75917 1.4375 6.55511V15.5551C1.4375 18.3511 3.70406 20.6176 6.5 20.6176H15.5C18.2959 20.6176 20.5625 18.3511 20.5625 15.5551V6.55511C20.5625 3.75917 18.2959 1.49261 15.5 1.49261Z" stroke="white" stroke-width="1.125" stroke-linecap="round" stroke-linejoin="round"/>
<ellipse cx="16.2942" cy="5.14094" rx="1.05882" ry="1.02857" fill="white"/>
<path d="M14.7857 13.2353C15.2015 12.4567 15.3547 11.5691 15.2219 10.6993C15.0865 9.81217 14.6613 8.9935 14.0125 8.36318C13.3639 7.7331 12.5261 7.32439 11.6239 7.19442C10.7394 7.06702 9.83548 7.21357 9.04007 7.6145C8.24447 8.01552 7.59628 8.6516 7.19041 9.43494C6.7844 10.2185 6.64252 11.108 6.78632 11.9761C6.9301 12.8441 7.35158 13.6434 7.98768 14.2613C8.62355 14.879 9.44155 15.2842 10.3244 15.4223C11.2073 15.5603 12.1129 15.4245 12.9133 15.0332C13.7138 14.6418 14.3699 14.0136 14.7857 13.2353Z" stroke="white" stroke-width="1.125" stroke-linecap="round" stroke-linejoin="round"/>
</svg>
