<svg width="54" height="34" viewBox="0 0 54 34" fill="none" xmlns="http://www.w3.org/2000/svg">
<path fill-rule="evenodd" clip-rule="evenodd" d="M36.387 8.66999C36.387 3.88168 32.5934 0 27.9137 0C23.7556 0 20.297 3.06466 19.5777 7.10691C18.3681 6.68817 17.0631 6.45985 15.7023 6.45985C9.89702 6.45985 5.10693 10.6152 4.4089 15.9843C2.0567 17.5058 0.5 20.1521 0.5 23.162V25.4576C0.5 30.1754 4.32449 33.9999 9.04223 33.9999H44.9578C49.6755 33.9999 53.5 30.1754 53.5 25.4576V23.162C53.5 18.4442 49.6755 14.6198 44.9578 14.6198H42.9715C42.5293 11.2867 39.7561 8.71162 36.387 8.66999Z" fill="#4E84CB"/>
<path fill-rule="evenodd" clip-rule="evenodd" d="M33.9983 12.087C33.9983 12.0869 33.9983 12.0867 33.9983 12.0865C33.9983 8.04031 30.6328 4.76025 26.4812 4.76025C22.7924 4.76025 19.7241 7.34982 19.0859 10.7655C18.0129 10.4116 16.8552 10.2187 15.648 10.2187C10.3572 10.2187 6.01698 13.9243 5.58654 18.6407C3.5127 20.1262 2.16138 22.5562 2.16138 25.3018C2.16138 29.8239 5.82732 33.4899 10.3495 33.4899H40.9921C45.5143 33.4899 49.1802 29.8239 49.1802 25.3018C49.1802 20.7796 45.5142 17.1137 40.9921 17.1137H39.8396C39.447 14.2977 36.9869 12.1222 33.9983 12.087Z" fill="#8FBAF3"/>
<g filter="url(#filter0_d_230_1009)">
<path fill-rule="evenodd" clip-rule="evenodd" d="M10.389 16.7032C10.385 16.7033 10.381 16.7035 10.3769 16.7037C10.1407 16.7037 9.9221 16.7805 9.72126 16.934C9.52041 17.0876 9.38455 17.2767 9.31366 17.5011C9.24278 17.7256 9.29003 17.9501 9.45543 18.1745C9.26641 18.1037 9.08328 18.1391 8.90607 18.2809C8.74067 18.4108 8.59299 18.5999 8.46303 18.848C8.33308 19.0842 8.24447 19.3383 8.19721 19.61C8.14996 19.8699 8.14996 20.1062 8.19721 20.3188C8.25628 20.5315 8.38033 20.6733 8.56936 20.7442C8.29763 20.7442 8.09088 20.8564 7.94911 21.0809C7.80734 21.3053 7.73645 21.5652 7.73645 21.8606C7.73645 22.1441 7.80143 22.4041 7.93139 22.6403C8.07316 22.8648 8.27991 22.9771 8.55164 22.9771C8.23266 23.0007 7.99637 23.1011 7.84278 23.2783C7.70101 23.4555 7.63603 23.6564 7.64785 23.8808C7.67148 24.0935 7.76599 24.2766 7.93139 24.4302C8.09679 24.5838 8.33898 24.6547 8.65797 24.6429C8.2681 24.7374 8.02 24.8614 7.91367 25.015C7.81915 25.1568 7.84869 25.269 8.00228 25.3517C8.16768 25.4344 8.43941 25.4226 8.81746 25.3163C8.60481 25.4699 8.50438 25.6707 8.5162 25.9188C8.52801 26.1669 8.61071 26.4091 8.7643 26.6454C8.91788 26.8699 9.10691 27.0353 9.33138 27.1416C9.56767 27.2361 9.79214 27.2066 10.0048 27.053C9.79214 27.3956 9.72126 27.6732 9.79214 27.8859C9.86303 28.0867 10.0048 28.1753 10.2175 28.1517C10.4301 28.1163 10.6428 27.9213 10.8554 27.5669C10.7727 27.8623 10.8023 28.1104 10.944 28.3112C11.0976 28.5002 11.2926 28.6243 11.5288 28.6834C11.7769 28.7542 12.0132 28.7424 12.2377 28.6479C12.4622 28.5534 12.6158 28.3644 12.6985 28.0808C13.1592 28.518 13.6023 28.8015 14.0276 28.9315C14.4647 29.0614 14.8191 29.0496 15.0909 28.896C15.3626 28.7424 15.4866 28.4589 15.463 28.0454C15.5339 28.388 15.6461 28.6007 15.7997 28.6834C15.9533 28.7779 16.0773 28.7542 16.1719 28.6125C16.2782 28.4707 16.2959 28.2226 16.225 27.8682C16.3432 28.1045 16.5381 28.2285 16.8098 28.2403C17.0816 28.2521 17.3533 28.1872 17.625 28.0454C17.8967 27.9036 18.1035 27.7205 18.2453 27.496C18.387 27.2597 18.3989 27.0234 18.2807 26.7872C18.5052 26.9408 18.7178 26.9821 18.9187 26.9112C19.1313 26.8285 19.3026 26.6926 19.4326 26.5036C19.5626 26.3028 19.6157 26.096 19.5921 25.8834C19.5803 25.6589 19.4562 25.4699 19.2199 25.3163C19.5626 25.2927 19.7811 25.1922 19.8756 25.015C19.9702 24.826 19.9524 24.6488 19.8225 24.4834C19.6925 24.318 19.4621 24.253 19.1313 24.2884C19.1313 23.9458 19.0427 23.6859 18.8655 23.5087C18.6883 23.3315 18.4816 23.2429 18.2453 23.2429C18.009 23.2429 17.8022 23.3315 17.625 23.5087C17.4478 23.6859 17.3592 23.9458 17.3592 24.2884C17.3001 24.0403 17.1702 23.8749 16.9693 23.7922C16.7685 23.7095 16.5558 23.6977 16.3314 23.7568C16.1187 23.8041 15.9415 23.9104 15.7997 24.0758C15.6698 24.2412 15.6343 24.4479 15.6934 24.696C15.5398 24.4125 15.3271 24.2471 15.0554 24.1998C14.7955 24.1526 14.5297 24.1939 14.2579 24.3239C13.998 24.442 13.8031 24.6192 13.6731 24.8555C13.6259 24.7846 13.5668 24.7551 13.4959 24.7669C13.5196 24.4834 13.4369 24.1939 13.2478 23.8986C13.0706 23.6032 12.8402 23.4378 12.5567 23.4024C12.8402 23.3197 13.0115 23.1956 13.0706 23.0302C13.1297 22.8648 13.0765 22.7171 12.9111 22.5872C12.7608 22.4583 12.5227 22.3929 12.1967 22.3909C12.5424 22.3816 12.7746 22.323 12.8934 22.215C13.0234 22.0969 13.0234 21.9787 12.8934 21.8606C12.7709 21.7493 12.5278 21.6852 12.1641 21.6682C12.5865 21.6783 12.8651 21.5711 12.9997 21.3467C13.1533 21.1104 13.1297 20.8977 12.9288 20.7087C13.1769 20.6733 13.4073 20.5728 13.62 20.4074C13.8444 20.2302 14.0098 20.0294 14.1162 19.8049C14.2107 19.8994 14.3111 19.8876 14.4174 19.7695C14.4529 19.9821 14.5828 20.1003 14.8073 20.1239C15.0161 20.1343 15.2388 20.0202 15.4754 19.7815C15.3051 19.9779 15.2301 20.157 15.2503 20.3188C15.2858 20.5079 15.398 20.6201 15.5871 20.6555C15.7761 20.6792 15.9887 20.5669 16.225 20.3188C16.225 20.5315 16.3077 20.7028 16.4731 20.8328C16.6503 20.9627 16.863 21.0513 17.1111 21.0986C17.371 21.134 17.625 21.134 17.8731 21.0986C18.133 21.0513 18.3457 20.9627 18.5111 20.8328C18.6883 20.7028 18.7769 20.5315 18.7769 20.3188C18.7769 20.7087 18.8301 20.9686 18.9364 21.0986C19.0427 21.2285 19.1491 21.2285 19.2554 21.0986C19.3617 20.9686 19.4149 20.7087 19.4149 20.3188C19.6748 20.2361 19.8402 20.0885 19.9111 19.8758C19.9938 19.6631 19.9997 19.4446 19.9288 19.2201C19.8579 18.9838 19.728 18.7948 19.5389 18.653C19.3617 18.5113 19.1432 18.4758 18.8832 18.5467C19.0841 18.3695 19.1845 18.1864 19.1845 17.9973C19.1963 17.8083 19.1372 17.6488 19.0073 17.5189C18.8891 17.3889 18.7356 17.318 18.5465 17.3062C18.3575 17.2944 18.1685 17.3771 17.9794 17.5543C18.074 17.2944 18.0621 17.0522 17.944 16.8277C17.8377 16.6032 17.6664 16.4201 17.4301 16.2783C17.4238 16.2741 17.4175 16.2698 17.4112 16.2656C17.4493 16.1064 17.5975 15.8029 17.9887 15.572C18.112 15.3634 18.2223 15.1994 18.3004 15.0834C18.3612 14.993 18.4025 14.9317 18.4148 14.9013C18.4936 14.7076 18.5072 14.6083 18.5271 14.4639L18.5271 14.4638C18.5349 14.4068 18.5437 14.3427 18.5579 14.263C18.5925 14.0684 18.6263 13.7849 18.5328 13.6334C18.4649 13.5233 18.2996 13.5 18.1817 13.5002C18.1428 13.5003 18.0958 13.5255 18.066 13.5415C18.0287 13.5615 18.0184 13.567 18.0845 13.4907C18.3564 13.1769 18.5787 12.603 18.5359 12.2167C18.5319 12.1807 18.5281 12.1445 18.5244 12.1083L18.5244 12.1082C18.5029 11.9012 18.4812 11.6928 18.4148 11.509C18.3608 11.3594 18.0558 11.5729 17.9731 11.6647C17.9545 11.6853 17.9398 11.7049 17.9293 11.7203C17.9347 11.7102 17.9414 11.6974 17.9493 11.6816C18.0407 11.4984 18.109 11.302 18.0693 11.1153C18.0361 10.9594 17.9471 10.746 17.7922 10.7403C17.3954 10.7258 16.9823 10.9875 16.7376 11.4209C16.5767 11.7057 16.472 12.1898 16.5143 12.4867C16.5176 12.5097 16.5239 12.5285 16.5287 12.5426C16.5391 12.5734 16.5419 12.5819 16.4893 12.5622C16.4096 12.5324 16.3225 12.5193 16.2334 12.5232C16.1542 12.5267 16.1358 12.5599 16.0975 12.6286C16.0923 12.6379 16.0868 12.6478 16.0807 12.6584L16.0317 12.7433C15.906 12.9605 15.7756 13.1858 15.6901 13.4199C15.6054 13.6522 15.5771 13.9172 15.5506 14.1648C15.5438 14.2285 15.5371 14.291 15.5296 14.3515C15.5118 14.4956 15.5027 14.6102 15.5454 14.7323C15.6526 15.0387 15.4707 15.1968 15.2998 15.3454C15.2164 15.4178 15.1357 15.488 15.0925 15.572C15.0704 15.6149 15.051 15.6525 15.0339 15.6854C15.0163 15.7196 15.0011 15.7488 14.9881 15.7743C14.8349 15.6819 14.6624 15.6314 14.4706 15.6227C14.2225 15.6108 13.998 15.6758 13.7972 15.8176C13.5963 15.9594 13.49 16.1779 13.4782 16.4733C13.4191 16.2252 13.2892 16.048 13.0883 15.9416C12.8993 15.8353 12.6748 15.7881 12.4149 15.7999C12.3842 15.7999 12.3537 15.8006 12.3233 15.8021C12.3359 15.7628 12.349 15.7237 12.362 15.6848C12.4636 15.3803 12.5596 15.0927 12.3699 14.9143C12.3612 14.9062 12.3501 14.8967 12.3378 14.8863L12.3378 14.8862C12.2802 14.8372 12.1979 14.7671 12.2311 14.7156C12.2727 14.6511 12.2523 14.485 12.2402 14.3872V14.3872C12.2377 14.3669 12.2356 14.3495 12.2345 14.3366C12.2087 14.0451 12.1623 13.7525 12.0784 13.4795C12.0204 13.2908 11.9212 13.0238 11.7695 12.9343C11.6593 12.8693 11.5025 12.9275 11.3982 12.9839C11.3638 13.0025 11.3337 13.0472 11.3146 13.0755C11.2907 13.111 11.2841 13.1208 11.3079 13.0218C11.4056 12.6144 11.341 12.0006 11.1272 11.6792C11.1073 11.6493 11.0875 11.6191 11.0677 11.5888L11.0677 11.5888C10.9544 11.4159 10.8404 11.2418 10.698 11.1107C10.582 11.0041 10.4094 11.3384 10.3779 11.4591C10.3709 11.4861 10.3668 11.5105 10.3645 11.5291C10.3647 11.5176 10.3648 11.5032 10.3646 11.4854C10.3621 11.2797 10.3331 11.0734 10.2129 10.9271C10.1126 10.805 9.93673 10.6585 9.797 10.7274C9.43935 10.9037 9.19294 11.3321 9.1737 11.8323C9.16106 12.161 9.28869 12.6392 9.46138 12.8818C9.47471 12.9005 9.48889 12.9142 9.49954 12.9244C9.52272 12.9467 9.52917 12.9529 9.47364 12.9605C9.38948 12.9721 9.30645 13.002 9.22945 13.048C9.16096 13.0889 9.15972 13.1269 9.15714 13.2061C9.15679 13.2167 9.15642 13.2281 9.15586 13.2404L9.15113 13.3388C9.13878 13.591 9.12598 13.8525 9.15697 14.1004C9.18773 14.3464 9.28331 14.5944 9.37262 14.8261C9.39559 14.8856 9.41815 14.9442 9.43908 15.0013C9.4889 15.1372 9.53298 15.243 9.6264 15.3307C9.64073 15.3442 9.6535 15.3561 9.66482 15.3667C9.71929 15.4178 9.7402 15.4374 9.73907 15.4387C9.73836 15.4396 9.7291 15.4334 9.71408 15.4233C9.6362 15.371 9.4034 15.2146 9.4034 15.3992C9.4034 15.7212 9.66709 15.9568 9.93146 16.193C10.1112 16.3537 10.2913 16.5146 10.389 16.7032ZM22.4523 25.653C22.5941 25.7711 22.8776 25.8302 23.3029 25.8302C23.2911 26.7163 23.3502 27.3956 23.4802 27.8682C23.6219 28.3289 23.7814 28.6243 23.9586 28.7542C24.1477 28.8842 24.3131 28.8724 24.4548 28.7188C24.5966 28.577 24.6675 28.3289 24.6675 27.9745C24.6675 28.2699 24.7738 28.4943 24.9865 28.6479C25.1991 28.8015 25.4472 28.8783 25.7308 28.8783C26.0143 28.8783 26.2624 28.8015 26.4751 28.6479C26.6877 28.4943 26.7941 28.2699 26.7941 27.9745C26.7941 28.2699 26.9004 28.4943 27.1131 28.6479C27.3375 28.8015 27.5974 28.8783 27.8928 28.8783C28.1882 28.8783 28.4422 28.8015 28.6548 28.6479C28.8793 28.4943 28.9915 28.2699 28.9915 27.9745C28.9915 28.258 29.0919 28.4648 29.2928 28.5948C29.4936 28.7365 29.724 28.8074 29.9839 28.8074C30.2438 28.8074 30.4742 28.7365 30.6751 28.5948C30.8759 28.4648 30.9763 28.258 30.9763 27.9745C31.1654 28.1399 31.3662 28.2049 31.5789 28.1694C31.7915 28.1222 31.9746 28.0159 32.1282 27.8505C32.2818 27.6732 32.3645 27.4783 32.3763 27.2656C32.3999 27.053 32.3172 26.8581 32.1282 26.6808C32.4354 26.669 32.6599 26.5922 32.8016 26.4505C32.9552 26.3087 33.0261 26.1551 33.0143 25.9897C33.0025 25.8125 32.9139 25.6648 32.7485 25.5467C32.5831 25.4285 32.3468 25.3813 32.0396 25.4049C32.0396 25.145 31.9569 24.9382 31.7915 24.7846C31.6261 24.6311 31.4194 24.5306 31.1713 24.4834C30.9232 24.4361 30.6751 24.4361 30.427 24.4834C30.1907 24.5306 29.9839 24.6311 29.8067 24.7846C29.6413 24.9382 29.5586 25.145 29.5586 25.4049C29.5586 25.1332 29.47 24.9146 29.2928 24.7492C29.1274 24.5838 28.9206 24.4775 28.6725 24.4302C28.4244 24.383 28.1822 24.3889 27.946 24.4479C27.9696 24.1526 27.8928 23.8631 27.7156 23.5796C27.5502 23.296 27.308 23.1484 26.989 23.1365C27.3316 23.0893 27.5502 22.983 27.6447 22.8176C27.751 22.6403 27.7274 22.4749 27.5738 22.3214C27.4202 22.1678 27.1426 22.091 26.7409 22.091C27.1426 22.091 27.4084 22.0319 27.5384 21.9138C27.6683 21.7956 27.6683 21.6775 27.5384 21.5593C27.4084 21.4412 27.1426 21.3821 26.7409 21.3821C27.0363 21.3821 27.2548 21.2817 27.3966 21.0809C27.5502 20.88 27.627 20.6496 27.627 20.3897C27.627 20.1298 27.5502 19.8994 27.3966 19.6986C27.2548 19.4977 27.0363 19.3973 26.7409 19.3973C27.0481 19.3973 27.2785 19.2969 27.432 19.0961C27.5974 18.8834 27.6801 18.6471 27.6801 18.3872C27.6801 18.1155 27.5974 17.8792 27.432 17.6783C27.2785 17.4657 27.0481 17.3594 26.7409 17.3594C26.8709 17.1821 26.9122 17.0108 26.865 16.8454C26.8295 16.68 26.7468 16.5501 26.6169 16.4556C26.4869 16.361 26.3392 16.3256 26.1738 16.3492C26.0084 16.361 25.8607 16.4556 25.7308 16.6328C25.7308 16.3492 25.6422 16.1425 25.465 16.0125C25.2877 15.8708 25.081 15.7999 24.8447 15.7999C24.6084 15.7999 24.4017 15.8708 24.2245 16.0125C24.0472 16.1425 23.9586 16.3492 23.9586 16.6328C23.7578 16.5501 23.5747 16.5619 23.4093 16.6682C23.2439 16.7745 23.1139 16.9281 23.0194 17.129C22.9367 17.318 22.9131 17.5129 22.9485 17.7138C22.984 17.9028 23.1021 18.0446 23.3029 18.1391C22.9485 18.1391 22.6827 18.2159 22.5055 18.3695C22.3401 18.5113 22.2574 18.6826 22.2574 18.8834C22.2574 19.0724 22.3401 19.2437 22.5055 19.3973C22.6827 19.5391 22.9485 19.61 23.3029 19.61C22.8894 19.61 22.6118 19.6927 22.47 19.8581C22.3283 20.0235 22.3283 20.1889 22.47 20.3543C22.6118 20.5197 22.8894 20.6024 23.3029 20.6024C23.0194 20.6024 22.8008 20.691 22.6472 20.8682C22.5055 21.0454 22.4346 21.2522 22.4346 21.4885C22.4346 21.7247 22.5055 21.9315 22.6472 22.1087C22.8008 22.2859 23.0194 22.3745 23.3029 22.3745C22.984 22.3745 22.7477 22.4395 22.5941 22.5695C22.4405 22.6994 22.3637 22.8471 22.3637 23.0125C22.3637 23.1779 22.4405 23.3256 22.5941 23.4555C22.7477 23.5855 22.984 23.6505 23.3029 23.6505C22.9721 23.6505 22.724 23.7273 22.5586 23.8808C22.3932 24.0226 22.3105 24.1939 22.3105 24.3948C22.3105 24.5838 22.3932 24.7551 22.5586 24.9087C22.724 25.0623 22.9721 25.1391 23.3029 25.1391C22.8776 25.1391 22.5941 25.1981 22.4523 25.3163C22.3105 25.4226 22.3105 25.5348 22.4523 25.653ZM38.029 28.453C38.1944 28.3939 38.3067 28.2758 38.3658 28.0986C39.1928 28.6893 39.7953 28.9846 40.1733 28.9846C40.5514 28.9846 40.7286 28.7306 40.705 28.2226C40.7404 28.4943 40.8468 28.6656 41.024 28.7365C41.213 28.8074 41.3843 28.7838 41.5379 28.6656C41.6915 28.5593 41.7446 28.3644 41.6974 28.0808C41.7683 28.3171 41.8923 28.453 42.0695 28.4884C42.2586 28.5121 42.424 28.4589 42.5657 28.3289C42.7075 28.199 42.7429 28.0218 42.6721 27.7973C42.7666 27.9627 42.8906 28.0513 43.0442 28.0631C43.2096 28.0749 43.3573 28.0395 43.4872 27.9568C43.629 27.8741 43.7235 27.7618 43.7708 27.6201C43.818 27.4665 43.7885 27.307 43.6822 27.1416C43.8594 27.2597 44.0248 27.3011 44.1784 27.2656C44.332 27.2184 44.456 27.1298 44.5505 26.9998C44.6451 26.8699 44.6805 26.7281 44.6569 26.5745C44.6451 26.4091 44.5505 26.2673 44.3733 26.1492C44.6096 26.1965 44.8045 26.1433 44.9581 25.9897C45.1235 25.8361 45.224 25.6471 45.2594 25.4226C45.3066 25.1863 45.2889 24.9737 45.2062 24.7846C45.1235 24.5838 44.9581 24.4597 44.71 24.4125C44.9109 24.3889 45.0585 24.2884 45.1531 24.1112C45.2594 23.934 45.3185 23.7214 45.3303 23.4733C45.3421 23.2133 45.3126 22.9652 45.2417 22.729C45.1826 22.4809 45.0822 22.28 44.9404 22.1264C44.8104 21.9728 44.6451 21.902 44.4442 21.9138C44.6332 21.7956 44.7218 21.6361 44.71 21.4353C44.6982 21.2226 44.6273 21.0277 44.4974 20.8505C44.3792 20.6733 44.2256 20.5492 44.0366 20.4783C43.8476 20.3956 43.6586 20.4193 43.4695 20.5492C43.564 20.3838 43.5759 20.2302 43.505 20.0885C43.4459 19.9467 43.3396 19.8404 43.186 19.7695C43.0442 19.6868 42.8906 19.6513 42.7252 19.6631C42.5716 19.675 42.4535 19.7636 42.3708 19.929C42.4181 19.6691 42.3767 19.4623 42.2467 19.3087C42.1286 19.1433 41.9691 19.0429 41.7683 19.0075C41.5674 18.9602 41.3725 18.9838 41.1835 19.0783C41.0062 19.1729 40.894 19.3442 40.8468 19.5923C40.8468 19.415 40.7581 19.2851 40.5809 19.2024C40.4155 19.1079 40.2206 19.0606 39.9961 19.0606C39.7717 19.0606 39.5708 19.1079 39.3936 19.2024C39.2282 19.2851 39.1455 19.415 39.1455 19.5923C39.1101 19.415 39.0274 19.291 38.8974 19.2201C38.7674 19.1492 38.6257 19.1315 38.4721 19.1669C38.3303 19.1906 38.2122 19.2556 38.1177 19.3619C38.0231 19.4682 37.9936 19.6159 38.029 19.8049C37.9345 19.5568 37.8105 19.415 37.6569 19.3796C37.5151 19.3442 37.397 19.3914 37.3025 19.5214C37.208 19.6395 37.202 19.8226 37.2847 20.0707C37.1784 19.9172 37.0485 19.8345 36.8949 19.8226C36.7413 19.8108 36.5995 19.8522 36.4696 19.9467C36.3396 20.0294 36.251 20.1475 36.2037 20.3011C36.1565 20.4429 36.186 20.5906 36.2923 20.7442C36.0915 20.6142 35.9025 20.5728 35.7253 20.6201C35.5599 20.6555 35.4299 20.7442 35.3354 20.8859C35.2527 21.0159 35.2231 21.1695 35.2468 21.3467C35.2704 21.5239 35.3826 21.6775 35.5835 21.8074C35.3945 21.772 35.235 21.8252 35.105 21.9669C34.9869 22.1087 34.9042 22.2859 34.8569 22.4986C34.8215 22.6994 34.8333 22.8884 34.8923 23.0657C34.9632 23.2429 35.0932 23.3492 35.2822 23.3846C35.105 23.3846 34.9691 23.4555 34.8746 23.5973C34.7919 23.7273 34.7506 23.8808 34.7506 24.0581C34.7624 24.2235 34.8097 24.3711 34.8923 24.5011C34.9869 24.6311 35.1227 24.696 35.2999 24.696C34.981 24.7433 34.7801 24.8614 34.6974 25.0505C34.6147 25.2277 34.6383 25.3931 34.7683 25.5467C34.9101 25.6884 35.1404 25.7357 35.4594 25.6884C35.3531 25.7711 35.3177 25.907 35.3531 26.096C35.4004 26.2851 35.489 26.4918 35.6189 26.7163C35.7607 26.9289 35.9202 27.1239 36.0974 27.3011C36.2864 27.4783 36.4696 27.6083 36.6468 27.691C36.824 27.7737 36.9658 27.7678 37.0721 27.6732C37.013 27.8505 37.0307 28.0099 37.1253 28.1517C37.2316 28.2817 37.3674 28.3762 37.5328 28.4353C37.7101 28.4943 37.8755 28.5002 38.029 28.453ZM40.8822 25.0327C40.9413 25.21 41.0358 25.3045 41.1657 25.3163C40.7641 25.5053 40.3978 25.6057 40.067 25.6175C39.7362 25.6294 39.4881 25.6825 39.3227 25.777C39.3582 25.6235 39.3522 25.4403 39.305 25.2277C39.2695 25.015 39.1987 24.8319 39.0923 24.6783C39.0125 24.5387 38.9201 24.4664 38.815 24.4615C38.9369 24.4436 39.0235 24.3682 39.0746 24.2353C39.1337 24.0699 39.1396 23.9045 39.0923 23.7391C39.0569 23.5737 38.9683 23.4733 38.8265 23.4378C38.9565 23.4378 39.0746 23.3551 39.1809 23.1897C39.2873 23.0243 39.3641 22.8353 39.4113 22.6226C39.4704 22.3982 39.4822 22.2032 39.4468 22.0378C39.5176 22.0851 39.5826 22.0969 39.6417 22.0733C39.7008 22.0496 39.7362 21.9906 39.748 21.896C39.8307 22.026 39.9489 22.1028 40.1025 22.1264C40.256 22.1501 40.386 22.1146 40.4923 22.0201C40.4805 22.1855 40.5041 22.3804 40.5632 22.6049C40.6341 22.8176 40.7227 23.0066 40.829 23.172C40.9472 23.3374 41.0653 23.4201 41.1835 23.4201C41.0653 23.4555 40.9767 23.5678 40.9176 23.7568C40.8586 23.9458 40.8231 24.1644 40.8113 24.4125C40.8113 24.6488 40.8349 24.8555 40.8822 25.0327Z" fill="white"/>
</g>
<path d="M13.1608 18.2693C13.1608 18.6827 12.9615 18.943 12.283 19.1675C11.8643 18.419 11.1858 19.3563 11.1858 18.943C11.1858 18.5296 11.4052 18.1196 12.1897 17.9207C12.5937 17.9207 13.1608 17.856 13.1608 18.2693Z" fill="url(#paint0_linear_230_1009)"/>
<path d="M15.5139 17.9314C15.4747 18.3252 15.6409 18.5931 16.2695 18.8749C16.7418 18.2037 17.3028 19.1645 17.342 18.7707C17.3813 18.3768 17.21 17.9643 16.4773 17.6963C16.0903 17.6559 15.5532 17.5376 15.5139 17.9314Z" fill="url(#paint1_linear_230_1009)"/>
<defs>
<filter id="filter0_d_230_1009" x="7.64648" y="10.7097" width="39.8819" height="20.5066" filterUnits="userSpaceOnUse" color-interpolation-filters="sRGB">
<feFlood flood-opacity="0" result="BackgroundImageFix"/>
<feColorMatrix in="SourceAlpha" type="matrix" values="0 0 0 0 0 0 0 0 0 0 0 0 0 0 0 0 0 0 127 0" result="hardAlpha"/>
<feOffset dx="1.56827" dy="1.56827"/>
<feGaussianBlur stdDeviation="0.313654"/>
<feComposite in2="hardAlpha" operator="out"/>
<feColorMatrix type="matrix" values="0 0 0 0 0 0 0 0 0 0 0 0 0 0 0 0 0 0 0.25 0"/>
<feBlend mode="normal" in2="BackgroundImageFix" result="effect1_dropShadow_230_1009"/>
<feBlend mode="normal" in="SourceGraphic" in2="effect1_dropShadow_230_1009" result="shape"/>
</filter>
<linearGradient id="paint0_linear_230_1009" x1="12.1733" y1="17.917" x2="12.1733" y2="19.1675" gradientUnits="userSpaceOnUse">
<stop stop-color="#3D516F"/>
<stop offset="1" stop-color="#202122"/>
</linearGradient>
<linearGradient id="paint1_linear_230_1009" x1="16.4934" y1="17.6945" x2="16.3691" y2="18.8853" gradientUnits="userSpaceOnUse">
<stop stop-color="#3D516F"/>
<stop offset="1" stop-color="#202122"/>
</linearGradient>
</defs>
</svg>
