<svg width="402" height="338" viewBox="0 0 402 338" fill="none" xmlns="http://www.w3.org/2000/svg">
<path d="M45.3121 220.107H74.7038V257.379H70.9233C61.765 257.379 55.1981 255.8 51.2224 252.64C47.2822 249.481 45.3121 244.103 45.3121 236.507V220.107ZM34.663 292.575C28.9124 292.575 23.8008 290.445 19.3282 286.185C15.388 282.422 12.2998 277.417 10.0634 271.17C8.00461 265.419 6.97519 259.722 6.97519 254.078C6.97519 245.594 9.06952 238.051 13.2582 231.448C16.2399 226.763 20.1624 223.462 25.0255 221.545C27.5103 220.586 30.2791 220.107 33.3318 220.107H37.4317V292.575H34.663ZM45.3121 278.677H71.935V280.168C71.935 283.47 70.7458 286.256 68.3675 288.528C65.4567 291.226 61.3213 292.575 55.9613 292.575H45.3121V278.677ZM88.8139 220.107H117.46V292.468H88.8139V220.107ZM126.618 287.41C126.618 280.062 130.878 275.074 139.397 272.448C142.663 271.454 146.869 270.957 152.017 270.957H156.223V292.575H126.618V287.41ZM208.51 220.107H212.663C225.833 220.107 234.53 225.982 238.754 237.731C240.458 242.559 241.31 248.114 241.31 254.397C241.31 264.976 239.269 273.69 235.186 280.541C230.359 288.563 222.851 292.575 212.663 292.575H208.51V220.107ZM195.678 292.575C182.58 292.575 173.901 285.937 169.641 272.661C167.902 267.265 167.032 261.177 167.032 254.397C167.032 240.589 170.866 230.845 178.533 225.165C183.041 221.793 188.756 220.107 195.678 220.107H199.831V292.575H195.678ZM252.172 220.107H280.818V292.468H252.172V220.107ZM289.976 287.41C289.976 280.062 294.236 275.074 302.755 272.448C306.021 271.454 310.227 270.957 315.374 270.957H319.581V292.575H289.976V287.41ZM401.473 294.545C401.473 311.335 393.042 319.73 376.181 319.73H372.88V220.107H401.473V294.545ZM333.638 220.107H363.083V292.575H358.291C345.228 292.575 337.436 288.137 334.916 279.263C334.064 276.388 333.638 273.069 333.638 269.306V220.107Z" fill="#6477C6"/>
<path fill-rule="evenodd" clip-rule="evenodd" d="M230.506 93.3179C238.051 62.2363 252.787 11.2055 264.756 2.14884C281.211 -10.3027 268.132 82.1338 252.52 101.972L270.241 90.7865V101.972L257.469 113.061C263.299 121.402 266.549 131.705 266.549 143.672C266.549 177.926 239.925 212.845 202.364 212.845C164.804 212.845 137.182 177.926 137.182 143.672C137.182 132.066 140.353 122.025 146.007 113.822L134.804 104.074V92.951L152.39 104.074C136.897 84.3461 123.916 -7.57969 140.247 4.80301C151.867 13.6137 166.114 62.3702 173.739 93.4236C182.261 90.3904 191.929 88.7989 202.364 88.7989C212.678 88.7989 222.166 90.3534 230.506 93.3179ZM199.793 154.788C203.009 154.558 206.868 154.282 212.673 154.979C218.646 155.695 209.791 162.572 205.523 163.459C200.036 163.681 189.228 156.808 195.879 154.979C197.134 154.979 198.403 154.888 199.793 154.788ZM216.498 135.836C217.496 126.691 229.535 111.626 242.438 117.878C258.567 125.693 224.48 147.808 216.498 135.836ZM188.896 135.862C187.82 126.704 174.836 111.619 160.92 117.88C143.525 125.705 180.288 147.85 188.896 135.862Z" fill="#6477C6"/>
<path d="M264.756 2.14884L264.857 2.28144L264.857 2.28144L264.756 2.14884ZM230.506 93.3179L230.45 93.4746L230.624 93.5363L230.668 93.3571L230.506 93.3179ZM252.52 101.972L252.39 101.869L252.609 102.112L252.52 101.972ZM270.241 90.7865H270.408V90.4849L270.152 90.6459L270.241 90.7865ZM270.241 101.972L270.35 102.097L270.408 102.048V101.972H270.241ZM257.469 113.061L257.36 112.936L257.247 113.034L257.333 113.156L257.469 113.061ZM146.007 113.822L146.144 113.916L146.228 113.794L146.116 113.696L146.007 113.822ZM134.804 104.074H134.637V104.15L134.694 104.2L134.804 104.074ZM134.804 92.951L134.892 92.8104L134.637 92.649V92.951H134.804ZM152.39 104.074L152.301 104.215L152.521 103.972L152.39 104.074ZM140.247 4.80301L140.348 4.67051L140.247 4.80301ZM173.739 93.4236L173.578 93.4632L173.621 93.6419L173.795 93.5802L173.739 93.4236ZM212.673 154.979L212.693 154.814L212.693 154.814L212.673 154.979ZM199.793 154.788L199.781 154.623L199.781 154.623L199.793 154.788ZM205.523 163.459L205.53 163.625L205.544 163.625L205.557 163.622L205.523 163.459ZM195.879 154.979V154.812H195.857L195.835 154.818L195.879 154.979ZM216.498 135.836L216.333 135.818L216.326 135.878L216.36 135.928L216.498 135.836ZM242.438 117.878L242.366 118.027L242.366 118.027L242.438 117.878ZM188.896 135.862L189.031 135.959L189.068 135.906L189.061 135.842L188.896 135.862ZM160.92 117.88L160.852 117.728L160.852 117.728L160.92 117.88ZM264.656 2.01624C261.629 4.30672 258.449 9.22774 255.267 15.7712C252.08 22.3231 248.878 30.5293 245.815 39.4199C239.69 57.2015 234.118 77.735 230.344 93.2787L230.668 93.3571C234.44 77.8191 240.009 57.2965 246.13 39.5282C249.19 30.6437 252.387 22.4515 255.566 15.9167C258.748 9.37339 261.899 4.5193 264.857 2.28144L264.656 2.01624ZM252.651 102.075C256.576 97.0868 260.328 87.561 263.492 76.2993C266.659 65.0297 269.245 51.9966 270.828 39.9735C272.411 27.9536 272.993 16.93 272.147 9.6842C271.935 7.87178 271.634 6.29137 271.234 4.98858C270.835 3.68768 270.336 2.65276 269.721 1.94084C269.103 1.22475 268.364 0.831463 267.502 0.833728C266.647 0.835973 265.699 1.2268 264.656 2.01624L264.857 2.28144C265.87 1.51444 266.748 1.16827 267.502 1.16629C268.249 1.16433 268.901 1.49959 269.469 2.15816C270.041 2.8209 270.524 3.80676 270.916 5.08607C271.308 6.3635 271.606 7.92275 271.817 9.72278C272.658 16.9268 272.08 27.9176 270.498 39.9301C268.917 51.9393 266.334 64.9567 263.172 76.2093C260.008 87.4698 256.27 96.9378 252.39 101.869L252.651 102.075ZM270.152 90.6459L252.431 101.831L252.609 102.112L270.33 90.9271L270.152 90.6459ZM270.408 101.972V90.7865H270.075V101.972H270.408ZM257.578 113.187L270.35 102.097L270.132 101.846L257.36 112.936L257.578 113.187ZM266.715 143.672C266.715 131.673 263.457 121.337 257.605 112.966L257.333 113.156C263.142 121.467 266.383 131.736 266.383 143.672H266.715ZM202.364 213.011C240.037 213.011 266.715 177.996 266.715 143.672H266.383C266.383 177.856 239.812 212.678 202.364 212.678V213.011ZM137.016 143.672C137.016 177.999 164.695 213.011 202.364 213.011V212.678C164.913 212.678 137.348 177.853 137.348 143.672H137.016ZM145.87 113.727C140.196 121.96 137.016 132.034 137.016 143.672H137.348C137.348 132.097 140.51 122.09 146.144 113.916L145.87 113.727ZM134.694 104.2L145.898 113.947L146.116 113.696L134.913 103.949L134.694 104.2ZM134.637 92.951V104.074H134.97V92.951H134.637ZM152.479 103.934L134.892 92.8104L134.715 93.0915L152.301 104.215L152.479 103.934ZM140.348 4.67051C139.312 3.88536 138.371 3.49647 137.522 3.49424C136.666 3.49199 135.932 3.88339 135.319 4.59569C134.709 5.30381 134.213 6.33313 133.817 7.62688C133.42 8.92252 133.121 10.4942 132.911 12.2967C132.071 19.5025 132.649 30.4652 134.22 42.4187C135.791 54.3755 138.357 67.3366 141.5 78.544C144.641 89.7435 148.364 99.2167 152.26 104.177L152.521 103.972C148.67 99.068 144.961 89.6524 141.82 78.4542C138.682 67.2638 136.119 54.3183 134.55 42.3754C132.98 30.4293 132.406 19.4993 133.241 12.3352C133.45 10.5451 133.746 8.99451 134.135 7.72418C134.524 6.45197 135.003 5.47169 135.571 4.81274C136.135 4.15798 136.782 3.82486 137.522 3.8268C138.269 3.82877 139.141 4.17282 140.147 4.9355L140.348 4.67051ZM173.901 93.3839C170.088 77.8545 164.618 57.8966 158.648 40.7177C155.664 32.1286 152.552 24.2306 149.459 17.9269C146.37 11.6313 143.287 6.89917 140.348 4.67051L140.147 4.9355C143.017 7.1122 146.072 11.7787 149.161 18.0734C152.245 24.36 155.352 32.2439 158.334 40.8269C164.299 57.9923 169.766 77.9393 173.578 93.4632L173.901 93.3839ZM202.364 88.6326C191.912 88.6326 182.225 90.2266 173.683 93.2669L173.795 93.5802C182.297 90.5541 191.946 88.9652 202.364 88.9652V88.6326ZM230.562 93.1612C222.202 90.1896 212.694 88.6326 202.364 88.6326V88.9652C212.661 88.9652 222.131 90.5172 230.45 93.4746L230.562 93.1612ZM212.693 154.814C206.872 154.115 203 154.392 199.781 154.623L199.805 154.954C203.018 154.724 206.865 154.449 212.654 155.144L212.693 154.814ZM205.557 163.622C206.649 163.395 208.021 162.789 209.365 162.004C210.711 161.218 212.042 160.246 213.054 159.275C213.56 158.79 213.989 158.302 214.3 157.835C214.609 157.371 214.811 156.914 214.842 156.494C214.874 156.062 214.726 155.677 214.36 155.383C214.004 155.096 213.453 154.905 212.693 154.814L212.654 155.144C213.387 155.232 213.866 155.412 214.152 155.642C214.428 155.864 214.535 156.141 214.51 156.469C214.485 156.808 214.318 157.208 214.023 157.651C213.729 158.091 213.318 158.561 212.824 159.035C211.834 159.984 210.525 160.942 209.197 161.717C207.867 162.494 206.531 163.08 205.49 163.296L205.557 163.622ZM195.835 154.818C194.989 155.051 194.396 155.37 194.036 155.765C193.669 156.168 193.554 156.639 193.645 157.136C193.734 157.625 194.019 158.131 194.433 158.63C194.849 159.131 195.403 159.636 196.05 160.121C197.342 161.091 199.013 161.994 200.707 162.64C202.398 163.286 204.127 163.682 205.53 163.625L205.517 163.293C204.177 163.347 202.496 162.967 200.826 162.329C199.157 161.693 197.514 160.804 196.249 159.855C195.617 159.38 195.083 158.893 194.689 158.418C194.293 157.941 194.047 157.487 193.972 157.077C193.899 156.676 193.988 156.312 194.282 155.989C194.582 155.66 195.106 155.364 195.923 155.139L195.835 154.818ZM199.781 154.623C198.39 154.722 197.127 154.812 195.879 154.812V155.145C197.141 155.145 198.416 155.054 199.805 154.954L199.781 154.623ZM216.663 135.854C217.157 131.33 220.391 125.314 225.113 121.208C229.829 117.107 235.994 114.94 242.366 118.027L242.511 117.728C235.978 114.563 229.672 116.803 224.894 120.957C220.122 125.107 216.837 131.196 216.333 135.818L216.663 135.854ZM242.366 118.027C244.358 118.993 245.555 120.169 246.13 121.452C246.704 122.734 246.671 124.146 246.155 125.609C245.12 128.544 242.157 131.642 238.417 134.139C234.682 136.633 230.201 138.507 226.166 139.015C222.128 139.523 218.581 138.661 216.637 135.744L216.36 135.928C218.406 138.998 222.114 139.86 226.207 139.345C230.305 138.829 234.834 136.931 238.602 134.415C242.365 131.903 245.399 128.755 246.469 125.72C247.005 124.197 247.051 122.693 246.433 121.316C245.817 119.941 244.55 118.716 242.511 117.728L242.366 118.027ZM189.061 135.842C188.516 131.211 184.973 125.113 179.827 120.96C174.676 116.801 167.885 114.564 160.852 117.728L160.988 118.031C167.871 114.935 174.53 117.11 179.618 121.218C184.713 125.331 188.199 131.355 188.73 135.881L189.061 135.842ZM160.852 117.728C158.656 118.716 157.29 119.94 156.625 121.318C155.958 122.7 156.007 124.209 156.586 125.736C157.741 128.776 161.012 131.928 165.069 134.442C169.131 136.96 174.013 138.859 178.427 139.375C182.836 139.89 186.826 139.029 189.031 135.959L188.76 135.765C186.661 138.688 182.828 139.554 178.466 139.045C174.11 138.535 169.274 136.657 165.244 134.159C161.208 131.658 158.013 128.555 156.897 125.617C156.342 124.155 156.306 122.744 156.924 121.463C157.544 120.179 158.835 119 160.988 118.031L160.852 117.728Z" fill="#5654BB" fill-opacity="0.6"/>
<path d="M56.8076 305.067H63.522L70.9358 330.34L68.4646 337.707H66.273L56.8076 305.067ZM68.7909 313.74L71.3555 305.067H78.0699L85.4371 330.34L83.0124 337.707H80.8209L74.6661 316.444C74.3552 317.439 73.9045 318.947 73.3138 320.967C72.8787 322.397 72.5523 323.47 72.3347 324.185H71.8684L68.7909 313.74ZM83.5253 313.74L86.0899 305.067H92.8043L87.0691 324.185H86.6028L83.5253 313.74ZM95.2289 337.707V305.067H112.201V311.595H101.803V318.216H107.818V324.791H101.803V331.132H112.201V337.707H95.2289ZM115.932 337.707V305.067H122.506V331.179H133.464V337.707H115.932ZM135.935 329.267V313.554C135.935 311.751 136.603 309.994 137.94 308.285C139.712 306.015 142.105 304.865 145.121 304.834V311.409C143.815 311.44 142.976 312.046 142.603 313.227C142.541 313.352 142.51 313.46 142.51 313.554V329.267C142.51 329.765 142.774 330.246 143.302 330.713C143.8 331.148 144.406 331.365 145.121 331.365V337.94C141.639 337.94 139.012 336.479 137.241 333.557C136.37 332.065 135.935 330.635 135.935 329.267ZM147.639 337.94V331.365C147.639 331.365 147.996 331.226 148.711 330.946C149.146 330.635 149.442 330.309 149.597 329.967C149.752 329.562 149.83 328.987 149.83 328.241V327.682L156.265 329.221C156.265 331.925 155.177 334.163 153.001 335.935C151.353 337.272 149.566 337.94 147.639 337.94ZM147.639 311.409V304.834C149.908 304.834 151.959 305.829 153.794 307.818C155.441 309.621 156.265 311.564 156.265 313.647L149.83 315.325V314.626C149.83 313.849 149.752 313.274 149.597 312.901C149.473 312.59 149.24 312.31 148.898 312.061C148.587 311.813 148.307 311.642 148.058 311.549L147.639 311.409ZM158.969 328.614V313.274C158.969 311.626 159.669 309.948 161.067 308.238C162.933 306 165.295 304.865 168.155 304.834V311.409C166.88 311.44 166.041 312.155 165.637 313.554C165.575 313.771 165.544 313.927 165.544 314.02V328.614C165.544 329.889 166.243 330.759 167.642 331.226C167.86 331.288 168.015 331.319 168.108 331.319V337.94C166.336 337.94 164.565 337.303 162.793 336.028C160.275 334.163 159 331.692 158.969 328.614ZM170.673 337.94V331.319C171.17 331.319 171.73 331.055 172.351 330.526C172.942 329.998 173.253 329.36 173.284 328.614V314.02C173.284 313.46 173.02 312.87 172.491 312.248C171.994 311.72 171.388 311.44 170.673 311.409V304.834C173.812 304.834 176.33 306.186 178.227 308.891C179.315 310.445 179.859 311.906 179.859 313.274V328.614C179.859 332.065 178.32 334.707 175.242 336.541C173.626 337.474 172.103 337.94 170.673 337.94ZM183.589 337.707V317.004H184.008L190.163 331.785V337.707H183.589ZM183.589 309.357V305.067H188.718L197.624 326.656L202.566 315.512H203.033V330.666L199.908 337.707H195.386L183.589 309.357ZM205.55 337.707V305.067H212.125V337.707H205.55ZM216.042 337.707V305.067H233.014V311.595H222.616V318.216H228.631V324.791H222.616V331.132H233.014V337.707H216.042ZM246.21 311.502V305.067H266.4V311.502H259.592V337.707H253.018V311.502H246.21ZM268.871 328.614V313.274C268.871 311.626 269.57 309.948 270.969 308.238C272.834 306 275.197 304.865 278.057 304.834V311.409C276.782 311.44 275.943 312.155 275.539 313.554C275.477 313.771 275.446 313.927 275.446 314.02V328.614C275.446 329.889 276.145 330.759 277.544 331.226C277.761 331.288 277.917 331.319 278.01 331.319V337.94C276.238 337.94 274.466 337.303 272.695 336.028C270.177 334.163 268.902 331.692 268.871 328.614ZM280.575 337.94V331.319C281.072 331.319 281.632 331.055 282.253 330.526C282.844 329.998 283.155 329.36 283.186 328.614V314.02C283.186 313.46 282.922 312.87 282.393 312.248C281.896 311.72 281.29 311.44 280.575 311.409V304.834C283.714 304.834 286.232 306.186 288.128 308.891C289.216 310.445 289.76 311.906 289.76 313.274V328.614C289.76 332.065 288.222 334.707 285.144 336.541C283.528 337.474 282.005 337.94 280.575 337.94ZM303.749 328.708V305.067H310.323V328.708C310.354 329.982 311.069 330.821 312.468 331.226C312.686 331.288 312.841 331.319 312.934 331.319V337.94C311.131 337.94 309.329 337.303 307.526 336.028C305.039 334.194 303.78 331.754 303.749 328.708ZM315.452 337.94V331.319C316.012 331.319 316.602 331.055 317.224 330.526C317.753 330.029 318.032 329.423 318.063 328.708V305.067H324.591V328.708C324.591 332.22 323.037 334.847 319.929 336.588C318.374 337.489 316.882 337.94 315.452 337.94ZM327.063 330.34L332.984 328.241C332.984 329.018 333.202 329.702 333.637 330.293C334.072 330.884 334.508 331.272 334.943 331.459L335.596 331.785V337.847C332.953 337.847 330.7 336.697 328.835 334.396C327.684 332.935 327.094 331.583 327.063 330.34ZM327.436 314.02C327.436 310.6 328.897 308.036 331.819 306.326C333.155 305.518 334.414 305.098 335.596 305.067V311.222C334.818 311.44 334.243 311.999 333.87 312.901C333.746 313.181 333.684 313.476 333.684 313.787C333.684 315.061 334.632 316.149 336.528 317.051C336.932 317.237 337.585 317.517 338.486 317.89C339.979 318.481 341.035 318.962 341.657 319.335C344.175 320.828 345.854 322.351 346.693 323.905C347.315 325.117 347.626 326.469 347.626 327.962C347.626 330.79 346.553 333.215 344.408 335.236C342.574 336.976 340.491 337.847 338.16 337.847V331.785C339.372 331.63 340.227 330.992 340.725 329.873C340.942 329.376 341.051 328.832 341.051 328.241C341.051 326.656 339.87 325.35 337.507 324.325C337.072 324.138 336.388 323.874 335.456 323.532C334.368 323.159 333.606 322.864 333.171 322.646C330.498 321.371 328.788 319.724 328.042 317.703C327.638 316.615 327.436 315.388 327.436 314.02ZM338.16 311.222V305.067C340.771 305.067 342.963 306.171 344.735 308.378C345.76 309.683 346.289 310.865 346.32 311.922L340.258 313.927C340.258 312.621 339.621 311.735 338.347 311.269C338.222 311.238 338.16 311.222 338.16 311.222Z" fill="#6477C6" fill-opacity="0.63"/>
</svg>
