<svg width="621" height="237" viewBox="0 0 621 237" fill="none" xmlns="http://www.w3.org/2000/svg">
<path fill-rule="evenodd" clip-rule="evenodd" d="M605.126 159.127C613.409 159.03 620.203 165.667 620.3 173.951L620.35 178.321C620.447 186.605 613.81 193.398 605.526 193.495L515.236 194.547C514.52 194.556 513.814 194.514 513.123 194.424L513.325 211.756C513.464 223.619 503.959 233.348 492.096 233.486L479.208 233.636C467.345 233.775 457.616 224.27 457.477 212.407L380.149 213.308L375.853 213.358L375.852 213.231C341.213 211.588 311.675 185.352 299.31 151.837C297.797 153.259 295.767 154.139 293.528 154.165L276.344 154.365C271.599 154.421 267.707 150.619 267.652 145.873L267.101 98.6174C267.046 93.8721 270.848 89.9805 275.593 89.9252L292.777 89.725C294.288 89.7074 295.713 90.0809 296.955 90.7516C307.29 55.1426 337.355 26.9286 373.652 24.4548L373.65 24.3337L377.946 24.2836L455.274 23.3825C455.136 11.5194 464.641 1.79037 476.504 1.65212L489.392 1.50193C501.255 1.36368 510.984 10.8685 511.123 22.7316L511.273 35.6196L603.635 34.5433C611.919 34.4467 618.712 41.0838 618.809 49.3675L618.86 53.7375C618.956 62.0212 612.319 68.8148 604.036 68.9113L511.673 69.9877L512.726 160.351C513.415 160.246 514.119 160.188 514.836 160.179L605.126 159.127Z" fill="#164B85"/>
<path fill-rule="evenodd" clip-rule="evenodd" d="M605.126 159.127C613.409 159.03 620.203 165.667 620.3 173.951L620.35 178.321C620.447 186.605 613.81 193.398 605.526 193.495L515.236 194.547C514.52 194.556 513.814 194.514 513.123 194.424L513.325 211.756C513.464 223.619 503.959 233.348 492.096 233.486L479.208 233.636C467.345 233.775 457.616 224.27 457.477 212.407L380.149 213.308L375.853 213.358L375.852 213.231C341.213 211.588 311.675 185.352 299.31 151.837C297.797 153.259 295.767 154.139 293.528 154.165L276.344 154.365C271.599 154.421 267.707 150.619 267.652 145.873L267.101 98.6174C267.046 93.8721 270.848 89.9805 275.593 89.9252L292.777 89.725C294.288 89.7074 295.713 90.0809 296.955 90.7516C307.29 55.1426 337.355 26.9286 373.652 24.4548L373.65 24.3337L377.946 24.2836L455.274 23.3825C455.136 11.5194 464.641 1.79037 476.504 1.65212L489.392 1.50193C501.255 1.36368 510.984 10.8685 511.123 22.7316L511.273 35.6196L603.635 34.5433C611.919 34.4467 618.712 41.0838 618.809 49.3675L618.86 53.7375C618.956 62.0212 612.319 68.8148 604.036 68.9113L511.673 69.9877L512.726 160.351C513.415 160.246 514.119 160.188 514.836 160.179L605.126 159.127Z" fill="#164B85"/>
<path fill-rule="evenodd" clip-rule="evenodd" d="M605.126 159.127C613.409 159.03 620.203 165.667 620.3 173.951L620.35 178.321C620.447 186.605 613.81 193.398 605.526 193.495L515.236 194.547C514.52 194.556 513.814 194.514 513.123 194.424L513.325 211.756C513.464 223.619 503.959 233.348 492.096 233.486L479.208 233.636C467.345 233.775 457.616 224.27 457.477 212.407L380.149 213.308L375.853 213.358L375.852 213.231C341.213 211.588 311.675 185.352 299.31 151.837C297.797 153.259 295.767 154.139 293.528 154.165L276.344 154.365C271.599 154.421 267.707 150.619 267.652 145.873L267.101 98.6174C267.046 93.8721 270.848 89.9805 275.593 89.9252L292.777 89.725C294.288 89.7074 295.713 90.0809 296.955 90.7516C307.29 55.1426 337.355 26.9286 373.652 24.4548L373.65 24.3337L377.946 24.2836L455.274 23.3825C455.136 11.5194 464.641 1.79037 476.504 1.65212L489.392 1.50193C501.255 1.36368 510.984 10.8685 511.123 22.7316L511.273 35.6196L603.635 34.5433C611.919 34.4467 618.712 41.0838 618.809 49.3675L618.86 53.7375C618.956 62.0212 612.319 68.8148 604.036 68.9113L511.673 69.9877L512.726 160.351C513.415 160.246 514.119 160.188 514.836 160.179L605.126 159.127Z" fill="#164B85"/>
<path fill-rule="evenodd" clip-rule="evenodd" d="M605.126 159.127C613.409 159.03 620.203 165.667 620.3 173.951L620.35 178.321C620.447 186.605 613.81 193.398 605.526 193.495L515.236 194.547C514.52 194.556 513.814 194.514 513.123 194.424L513.325 211.756C513.464 223.619 503.959 233.348 492.096 233.486L479.208 233.636C467.345 233.775 457.616 224.27 457.477 212.407L380.149 213.308L375.853 213.358L375.852 213.231C341.213 211.588 311.675 185.352 299.31 151.837C297.797 153.259 295.767 154.139 293.528 154.165L276.344 154.365C271.599 154.421 267.707 150.619 267.652 145.873L267.101 98.6174C267.046 93.8721 270.848 89.9805 275.593 89.9252L292.777 89.725C294.288 89.7074 295.713 90.0809 296.955 90.7516C307.29 55.1426 337.355 26.9286 373.652 24.4548L373.65 24.3337L377.946 24.2836L455.274 23.3825C455.136 11.5194 464.641 1.79037 476.504 1.65212L489.392 1.50193C501.255 1.36368 510.984 10.8685 511.123 22.7316L511.273 35.6196L603.635 34.5433C611.919 34.4467 618.712 41.0838 618.809 49.3675L618.86 53.7375C618.956 62.0212 612.319 68.8148 604.036 68.9113L511.673 69.9877L512.726 160.351C513.415 160.246 514.119 160.188 514.836 160.179L605.126 159.127Z" fill="#164B85"/>
<path fill-rule="evenodd" clip-rule="evenodd" d="M126 141.922L274.864 142.42L275.018 96.4201L134.153 95.9487L134.153 95.9484L0.158941 94C20.1532 95.7336 60.9312 102.403 66.1084 109.221C71.2856 116.038 102.92 115.844 118.09 114.895L126.037 130.923L126.036 131.289C122.192 126.615 112.895 120.113 102.548 127.343C91.7226 134.907 73.6718 140.08 65.9996 141.721L126 141.921L126 141.922Z" fill="#164B85"/>
<path fill-rule="evenodd" clip-rule="evenodd" d="M411.73 97.2124C415.732 83.7789 423.274 62.4798 429.39 58.6567C437.943 53.3107 431.069 93.1188 422.947 101.648L432.156 96.8487L432.146 101.667L426.644 105.614C432.578 111.317 435.998 119.174 435.977 128.773C435.933 149.74 419.489 171.079 396.356 171.03C373.223 170.981 356.256 149.571 356.3 128.603C356.318 120.394 358.94 113.47 363.514 108.086L354.407 101.553L354.397 96.7338L363.605 101.533C355.484 93.0038 348.61 53.1957 357.163 58.5418C363.62 62.578 371.666 86.0937 375.458 99.267C381.487 96.5283 388.65 95.0837 396.517 95.1004C402.013 95.1121 407.127 95.8352 411.73 97.2124ZM394.848 135.491C396.829 135.354 399.206 135.19 402.781 135.624C406.459 136.071 400.996 140.268 398.366 140.806C394.986 140.934 388.338 136.713 392.437 135.602C393.21 135.604 393.992 135.55 394.848 135.491L394.848 135.491L394.848 135.491ZM411.601 118.795C410.679 118.01 409.29 118.117 408.499 119.033C407.709 119.95 407.815 121.33 408.736 122.116L411.796 124.723L408.736 127.33C407.815 128.115 407.709 129.495 408.5 130.412C409.291 131.329 410.679 131.436 411.601 130.65L415.177 127.603L418.753 130.65C419.675 131.436 421.063 131.329 421.854 130.412C422.645 129.495 422.539 128.115 421.618 127.33L418.558 124.723L421.618 122.116C422.539 121.331 422.645 119.951 421.854 119.034C421.063 118.117 419.675 118.01 418.753 118.795L415.177 121.842L411.601 118.795ZM374.368 118.789C373.446 118.003 372.058 118.11 371.267 119.027C370.476 119.944 370.582 121.324 371.504 122.109L374.564 124.716L371.504 127.323C370.582 128.109 370.476 129.489 371.267 130.405C372.058 131.322 373.446 131.429 374.368 130.644L377.944 127.597L381.521 130.644C382.442 131.429 383.831 131.323 384.622 130.406C385.413 129.489 385.307 128.109 384.385 127.323L381.325 124.716L384.385 122.109C385.307 121.324 385.413 119.944 384.622 119.027C383.831 118.11 382.442 118.003 381.521 118.789L377.944 121.836L374.368 118.789Z" fill="white"/>
<path d="M429.39 58.6567L429.439 58.7344L429.39 58.6567ZM411.73 97.2124L411.704 97.3001L411.792 97.3264L411.818 97.2385L411.73 97.2124ZM422.947 101.648L422.881 101.585L422.99 101.729L422.947 101.648ZM432.156 96.8487L432.248 96.8489L432.248 96.6976L432.114 96.7675L432.156 96.8487ZM432.146 101.667L432.199 101.742L432.237 101.715L432.238 101.668L432.146 101.667ZM426.644 105.614L426.591 105.54L426.501 105.604L426.581 105.68L426.644 105.614ZM363.514 108.086L363.584 108.145L363.648 108.069L363.567 108.011L363.514 108.086ZM354.407 101.553L354.315 101.553L354.315 101.6L354.353 101.627L354.407 101.553ZM354.397 96.7338L354.439 96.6526L354.305 96.5826L354.305 96.734L354.397 96.7338ZM363.605 101.533L363.563 101.614L363.672 101.47L363.605 101.533ZM357.163 58.5418L357.211 58.4641L357.211 58.4641L357.163 58.5418ZM375.458 99.267L375.37 99.2923L375.399 99.3942L375.496 99.3504L375.458 99.267ZM402.781 135.624L402.77 135.715L402.781 135.624ZM394.848 135.491L394.848 135.583L394.854 135.582L394.848 135.491ZM398.366 140.806L398.37 140.897L398.377 140.897L398.384 140.895L398.366 140.806ZM392.437 135.602L392.437 135.511L392.425 135.511L392.413 135.514L392.437 135.602ZM394.848 135.491L394.848 135.399L394.842 135.399L394.848 135.491ZM408.499 119.033L408.569 119.093L408.499 119.033ZM411.601 118.795L411.541 118.865L411.601 118.795ZM408.736 122.116L408.796 122.046L408.736 122.116ZM411.796 124.723L411.856 124.793L411.938 124.723L411.856 124.653L411.796 124.723ZM408.736 127.33L408.796 127.4L408.736 127.33ZM408.5 130.412L408.43 130.472L408.5 130.412ZM411.601 130.65L411.66 130.72L411.601 130.65ZM415.177 127.603L415.236 127.534L415.177 127.483L415.118 127.534L415.177 127.603ZM418.753 130.65L418.813 130.581L418.753 130.65ZM421.854 130.412L421.924 130.472L421.854 130.412ZM421.618 127.33L421.558 127.4L421.618 127.33ZM418.558 124.723L418.498 124.653L418.417 124.723L418.498 124.793L418.558 124.723ZM421.618 122.116L421.677 122.186L421.677 122.186L421.618 122.116ZM418.753 118.795L418.813 118.865L418.753 118.795ZM415.177 121.842L415.118 121.912L415.177 121.963L415.236 121.912L415.177 121.842ZM371.267 119.027L371.197 118.967L371.267 119.027ZM374.368 118.789L374.427 118.719L374.368 118.789ZM371.504 122.109L371.444 122.179L371.504 122.109ZM374.564 124.716L374.623 124.786L374.705 124.716L374.623 124.647L374.564 124.716ZM371.504 127.323L371.563 127.393L371.504 127.323ZM371.267 130.405L371.198 130.465L371.267 130.405ZM374.368 130.644L374.309 130.574L374.309 130.574L374.368 130.644ZM377.944 127.597L378.004 127.527L377.944 127.477L377.885 127.527L377.944 127.597ZM381.521 130.644L381.58 130.574L381.521 130.644ZM384.622 130.406L384.691 130.466L384.691 130.466L384.622 130.406ZM384.385 127.323L384.325 127.393L384.385 127.323ZM381.325 124.716L381.266 124.647L381.184 124.716L381.266 124.786L381.325 124.716ZM384.385 122.109L384.326 122.04L384.385 122.109ZM384.622 119.027L384.691 118.967L384.622 119.027ZM381.521 118.789L381.461 118.719L381.521 118.789ZM377.944 121.836L377.885 121.906L377.944 121.956L378.004 121.906L377.944 121.836ZM429.342 58.5791C427.793 59.5473 426.165 61.6123 424.534 64.358C422.902 67.1074 421.259 70.5522 419.683 74.2951C416.531 81.7811 413.644 90.4677 411.643 97.1862L411.818 97.2385C413.818 90.5236 416.703 81.8439 419.852 74.3662C421.426 70.6272 423.065 67.1908 424.692 64.4516C426.321 61.7088 427.93 59.6777 429.439 58.7344L429.342 58.5791ZM423.014 101.711C425.059 99.5632 427.016 95.4592 428.67 90.6101C430.325 85.7568 431.679 80.1432 432.512 74.9637C433.345 69.7863 433.658 65.034 433.225 61.9067C433.009 60.3474 432.604 59.1699 431.966 58.5534C431.643 58.2417 431.26 58.0732 430.817 58.0732C430.376 58.0733 429.885 58.2395 429.342 58.5791L429.439 58.7344C429.965 58.4057 430.422 58.2564 430.817 58.2564C431.208 58.2564 431.547 58.4033 431.838 58.6852C432.429 59.2557 432.828 60.3777 433.043 61.9319C433.473 65.0316 433.163 69.762 432.331 74.9346C431.5 80.105 430.148 85.7084 428.496 90.551C426.844 95.3976 424.897 99.468 422.881 101.585L423.014 101.711ZM432.114 96.7675L422.905 101.567L422.99 101.729L432.199 96.93L432.114 96.7675ZM432.238 101.668L432.248 96.8489L432.065 96.8485L432.054 101.667L432.238 101.668ZM426.697 105.689L432.199 101.742L432.093 101.593L426.591 105.54L426.697 105.689ZM436.069 128.773C436.089 119.151 432.66 111.27 426.707 105.548L426.581 105.68C432.495 111.365 435.906 119.197 435.886 128.772L436.069 128.773ZM396.356 171.122C419.551 171.171 436.024 149.779 436.069 128.773L435.886 128.772C435.841 149.701 419.428 170.988 396.356 170.939L396.356 171.122ZM356.209 128.603C356.164 149.612 373.163 171.073 396.356 171.122L396.356 170.939C373.282 170.89 356.347 149.53 356.392 128.604L356.209 128.603ZM363.444 108.026C358.856 113.428 356.226 120.373 356.209 128.603L356.392 128.604C356.409 120.415 359.025 113.512 363.584 108.145L363.444 108.026ZM354.353 101.627L363.46 108.16L363.567 108.011L354.46 101.478L354.353 101.627ZM354.305 96.734L354.315 101.553L354.498 101.552L354.488 96.7336L354.305 96.734ZM363.648 101.452L354.439 96.6526L354.354 96.815L363.563 101.614L363.648 101.452ZM357.211 58.4641C356.668 58.1246 356.177 57.9583 355.736 57.9583C355.293 57.9583 354.91 58.1268 354.587 58.4385C353.948 59.055 353.544 60.2325 353.328 61.7918C352.895 64.9191 353.208 69.6714 354.041 74.8487C354.874 80.0283 356.228 85.6419 357.883 90.4952C359.536 95.3443 361.494 99.4483 363.539 101.596L363.672 101.47C361.656 99.3531 359.709 95.2827 358.056 90.436C356.405 85.5935 355.053 79.99 354.221 74.8197C353.389 69.6471 353.08 64.9166 353.51 61.817C353.725 60.2628 354.123 59.1407 354.714 58.5702C355.006 58.2884 355.345 58.1415 355.736 58.1415C356.131 58.1415 356.588 58.2908 357.114 58.6195L357.211 58.4641ZM375.546 99.2416C373.65 92.6531 370.689 83.4774 367.395 75.4433C365.748 71.4263 364.016 67.6926 362.292 64.7096C360.569 61.7305 358.846 59.4862 357.211 58.4641L357.114 58.6195C358.708 59.6156 360.412 61.8242 362.133 64.8013C363.852 67.7743 365.58 71.4996 367.225 75.5128C370.516 83.5388 373.475 92.7076 375.37 99.2923L375.546 99.2416ZM396.518 95.0088C388.639 94.992 381.463 96.4387 375.42 99.1836L375.496 99.3504C381.511 96.6179 388.661 95.1753 396.517 95.192L396.518 95.0088ZM411.757 97.1246C407.144 95.7447 402.021 95.0205 396.518 95.0088L396.517 95.192C402.005 95.2036 407.11 95.9258 411.704 97.3001L411.757 97.1246ZM402.792 135.533C399.209 135.098 396.824 135.263 394.842 135.399L394.854 135.582C396.834 135.446 399.204 135.282 402.77 135.715L402.792 135.533ZM398.384 140.895C399.056 140.758 399.9 140.39 400.728 139.912C401.558 139.433 402.378 138.839 403.002 138.247C403.314 137.951 403.578 137.654 403.77 137.369C403.96 137.086 404.084 136.809 404.104 136.554C404.124 136.292 404.034 136.06 403.812 135.882C403.596 135.708 403.259 135.59 402.792 135.533L402.77 135.715C403.222 135.77 403.519 135.881 403.698 136.024C403.87 136.163 403.937 136.336 403.921 136.54C403.905 136.749 403.8 136.996 403.618 137.267C403.436 137.537 403.181 137.824 402.876 138.114C402.265 138.695 401.456 139.28 400.637 139.753C399.816 140.227 398.991 140.584 398.348 140.716L398.384 140.895ZM392.413 135.514C391.893 135.655 391.53 135.848 391.309 136.088C391.085 136.332 391.014 136.617 391.069 136.918C391.123 137.215 391.296 137.524 391.55 137.829C391.805 138.136 392.145 138.445 392.542 138.742C393.336 139.337 394.363 139.891 395.405 140.289C396.445 140.686 397.507 140.93 398.37 140.897L398.363 140.714C397.535 140.746 396.499 140.51 395.47 140.118C394.442 139.725 393.43 139.179 392.652 138.595C392.263 138.304 391.934 138.004 391.691 137.712C391.447 137.419 391.295 137.139 391.249 136.886C391.204 136.637 391.26 136.411 391.444 136.212C391.631 136.009 391.957 135.827 392.461 135.691L392.413 135.514ZM394.842 135.399C393.985 135.459 393.206 135.512 392.437 135.511L392.437 135.694C393.213 135.695 393.999 135.641 394.854 135.582L394.842 135.399ZM394.848 135.399L394.848 135.399L394.848 135.582L394.848 135.582L394.848 135.399ZM394.848 135.399L394.848 135.399L394.848 135.582L394.848 135.582L394.848 135.399ZM408.569 119.093C409.327 118.215 410.658 118.112 411.541 118.865L411.66 118.726C410.7 117.908 409.254 118.019 408.43 118.974L408.569 119.093ZM408.796 122.046C407.913 121.294 407.811 119.972 408.569 119.093L408.43 118.974C407.606 119.929 407.717 121.367 408.677 122.185L408.796 122.046ZM411.856 124.653L408.796 122.046L408.677 122.185L411.737 124.793L411.856 124.653ZM408.796 127.4L411.856 124.793L411.737 124.653L408.677 127.26L408.796 127.4ZM408.569 130.352C407.811 129.474 407.913 128.152 408.796 127.4L408.677 127.26C407.717 128.078 407.606 129.516 408.43 130.472L408.569 130.352ZM411.541 130.581C410.658 131.333 409.327 131.231 408.569 130.352L408.43 130.472C409.254 131.427 410.7 131.538 411.66 130.72L411.541 130.581ZM415.118 127.534L411.541 130.581L411.66 130.72L415.236 127.673L415.118 127.534ZM418.813 130.581L415.236 127.534L415.118 127.673L418.694 130.72L418.813 130.581ZM421.785 130.352C421.027 131.231 419.696 131.333 418.813 130.581L418.694 130.72C419.654 131.538 421.1 131.427 421.924 130.472L421.785 130.352ZM421.558 127.4C422.441 128.152 422.543 129.474 421.785 130.352L421.924 130.472C422.748 129.517 422.637 128.078 421.677 127.26L421.558 127.4ZM418.498 124.793L421.558 127.4L421.677 127.26L418.617 124.653L418.498 124.793ZM421.558 122.046L418.498 124.653L418.617 124.793L421.677 122.186L421.558 122.046ZM421.785 119.094C422.543 119.972 422.441 121.294 421.558 122.046L421.677 122.186C422.637 121.367 422.748 119.929 421.924 118.974L421.785 119.094ZM418.813 118.865C419.696 118.112 421.027 118.215 421.785 119.094L421.924 118.974C421.1 118.019 419.654 117.908 418.694 118.726L418.813 118.865ZM415.236 121.912L418.813 118.865L418.694 118.726L415.118 121.773L415.236 121.912ZM411.541 118.865L415.118 121.912L415.236 121.773L411.66 118.726L411.541 118.865ZM371.336 119.087C372.094 118.208 373.425 118.106 374.308 118.859L374.427 118.719C373.467 117.901 372.021 118.012 371.197 118.967L371.336 119.087ZM371.563 122.04C370.68 121.287 370.578 119.965 371.336 119.087L371.197 118.967C370.373 119.923 370.484 121.361 371.444 122.179L371.563 122.04ZM374.623 124.647L371.563 122.04L371.444 122.179L374.504 124.786L374.623 124.647ZM371.563 127.393L374.623 124.786L374.504 124.647L371.444 127.254L371.563 127.393ZM371.336 130.346C370.579 129.467 370.68 128.145 371.563 127.393L371.444 127.254C370.484 128.072 370.374 129.51 371.198 130.465L371.336 130.346ZM374.309 130.574C373.425 131.327 372.095 131.224 371.336 130.346L371.198 130.465C372.022 131.42 373.467 131.532 374.427 130.714L374.309 130.574ZM377.885 127.527L374.309 130.574L374.427 130.714L378.004 127.667L377.885 127.527ZM381.58 130.574L378.004 127.527L377.885 127.667L381.461 130.714L381.58 130.574ZM384.552 130.346C383.794 131.225 382.463 131.327 381.58 130.574L381.461 130.714C382.421 131.532 383.867 131.421 384.691 130.466L384.552 130.346ZM384.325 127.393C385.209 128.146 385.31 129.467 384.552 130.346L384.691 130.466C385.515 129.51 385.405 128.072 384.444 127.254L384.325 127.393ZM381.266 124.786L384.325 127.393L384.444 127.254L381.384 124.647L381.266 124.786ZM384.326 122.04L381.266 124.647L381.384 124.786L384.445 122.179L384.326 122.04ZM384.552 119.087C385.31 119.965 385.209 121.287 384.326 122.04L384.445 122.179C385.405 121.361 385.515 119.923 384.691 118.967L384.552 119.087ZM381.58 118.858C382.464 118.106 383.794 118.208 384.552 119.087L384.691 118.967C383.867 118.012 382.421 117.901 381.461 118.719L381.58 118.858ZM378.004 121.906L381.58 118.858L381.461 118.719L377.885 121.766L378.004 121.906ZM374.308 118.859L377.885 121.906L378.004 121.766L374.427 118.719L374.308 118.859Z" fill="white"/>
</svg>
